<?xml version="1.0" encoding="UTF-8" standalone="no"?>
<!-- Generator: Adobe Illustrator 25.2.0, SVG Export Plug-In . SVG Version: 6.00 Build 0)  -->

<svg
   version="1.1"
   id="Layer_1"
   x="0px"
   y="0px"
   viewBox="0 0 494.98401 500"
   xml:space="preserve"
   width="494.98401"
   height="500"
   xmlns="http://www.w3.org/2000/svg"
   xmlns:svg="http://www.w3.org/2000/svg"><defs
   id="defs93" />


<g
   id="g93"
   transform="translate(-252.508,-250)"
   style="fill:#f2f2f2">
	<path
   style="clip-rule:evenodd;display:inline;fill:#f2f2f2;fill-rule:evenodd"
   d="M 747.492,549.92 C 724.455,657.229 628.73,738.098 514.705,738.098 383.566,738.098 276.61,631.142 276.61,500.004 c 0,-131.138 106.957,-238.096 238.095,-238.096 113.295,0 208.528,79.838 232.342,186.127 C 723.011,335.136 622.39,250 502.506,250 364.813,250 252.508,362.305 252.508,499.999 252.508,637.695 364.813,750 502.506,750 c 120.61,0 221.735,-86.166 244.986,-200.08 z"
   id="path92" />
	<path
   style="clip-rule:evenodd;fill:#f2f2f2;fill-rule:evenodd"
   d="m 474.692,624.307 c 13.775,-1.42 15.593,-15.997 9.104,-22.364 -5.344,-5.242 -34.835,-27.135 -42.53,-35.743 -3.572,-3.995 -8.413,-5.956 -10.463,-10.444 -4.716,-10.328 -8.021,-25.069 -2.038,-35.652 1.083,-1.915 1.778,-1.056 0.95,2.929 -4.698,22.588 10.008,41.035 13.245,31.573 2.237,-6.534 0.164,-18.23 1.358,-27.516 2.116,-16.433 17.075,-47.987 23.644,-49.79 -10.134,-18.77 11.884,-33.463 11.616,-49.938 -0.177,-10.712 9.409,13.172 19.045,18.237 10.759,5.655 22.585,-10.657 39.372,-18.935 4.75,-2.342 10.841,-5.032 10.431,-7.03 -1.972,-9.632 -22.049,11.882 -39.98,12.607 -8.185,0.329 -11.221,-1.607 -14.383,-4.66 -9.557,-9.237 0.974,-1.528 15.183,-4.098 6.315,-1.144 8.437,-2.196 15.138,-4.904 6.701,-2.709 14.361,-6.717 21.941,-8.777 5.28,-1.435 4.84,-5.401 2.787,-6.592 -1.182,-0.686 -2.933,-0.621 -4.322,1.78 -3.254,5.627 -18.553,8.878 -23.326,10.337 -6.132,1.875 -12.914,3.628 -21.922,3.262 -13.688,-0.555 -10.498,-6.829 -20.288,-12.443 -2.872,-1.645 -2.096,-5.968 1.719,-9.784 1.998,-2.002 7.476,-3.129 10.192,-7.678 0.382,-0.638 3.882,-4.299 6.626,-6.194 0.949,-0.657 1.031,-17.369 -7.544,-17.714 -7.285,-0.294 -9.356,5.354 -9.05,10.98 0.304,5.624 3.286,10.264 5.27,10.242 3.823,-0.039 0.243,4.183 -1.851,4.863 -3.181,1.035 -7.542,-12.524 -7.04,-19.034 0.524,-6.781 4.055,-18.791 12.639,-18.558 7.729,0.21 13.33,9.9 13.048,26.614 -0.049,2.834 12.532,-1.352 16.731,3.084 3.001,3.173 -10.286,-29.613 19.303,-31.87 7.8,1.492 15.283,4.085 18.396,22.008 -1.151,1.866 1.941,14.369 -2.872,15.853 -5.872,1.811 -9.496,-0.263 -6.103,-5.856 2.324,-5.617 0.053,-19.905 -11.83,-19.047 -11.885,0.857 -10.308,21.948 -7.051,22.365 3.258,0.416 11.466,6.24 17.192,7.356 18.803,3.66 4.989,14.438 7.43,27.485 2.757,14.736 12.463,10.844 21.187,49.865 1.822,2.376 9.047,4.626 16.088,34.603 6.332,26.972 -2.633,46.586 12.594,44.973 3.43,-0.362 8.442,-1.322 10.622,-8.962 5.699,-19.975 -2.855,-43.777 -11.491,-59.839 -5.03,-9.364 -9.767,-15.741 -12.269,-17.932 9.898,5.85 22.55,24.534 25.469,38.406 3.835,18.221 6.573,25.934 0.771,45.204 3.348,1.673 11.681,5.213 11.681,9.189 -8.679,-7.135 -35.252,-8.402 -35.935,8.66 -4.532,0.091 -7.958,0.462 -10.877,3.926 -10.683,12.671 -0.764,38.131 -1.846,51.784 -0.953,12.014 -4.284,23.916 -6.164,35.985 -6.36,-0.241 -5.739,-4.9 -3.699,-11.428 1.801,-5.762 4.703,-12.981 4.893,-19.905 0.173,-6.266 -0.512,-10.18 -2.09,-11.152 -1.582,-0.973 -4.056,0.999 -7.474,6.503 -7.296,11.753 -23.1,16.919 -37.859,18.768 -14.758,1.851 -28.477,0.384 -35.742,-7.755 -2.484,-2.782 -6.604,0.759 -7.093,1.498 -0.655,0.99 2.405,2.913 4.711,7.145 3.37,6.181 6.574,15.561 -1.409,19.84 0.092,-21.758 -6.795,-23.031 -13.835,-36.33 z m -5.274,-0.575 c 5.288,8.325 23.925,43.379 -8.743,47.927 -10.926,1.521 -28.518,-6.357 -45.561,-10.528 -15.314,-3.746 -30.865,-5.963 -39.568,-8.409 -5.241,-1.471 -7.43,-3.352 -7.886,-5.547 -1.208,-5.818 6.362,-13.979 6.746,-20.866 0.383,-6.889 -2.513,-10.469 -4.884,-16.089 -2.377,-5.634 -2.995,-9.852 -1.094,-12.269 1.48,-1.879 4.484,-2.665 9.372,-2.185 6.197,0.61 13.68,-0.66 17.702,-3.112 6.772,-4.133 9.958,-12.598 6.911,-22.798 0,9.982 -3.273,13.761 -11.479,18.326 -7.733,4.304 -19.67,0.823 -25.156,5.583 -6.602,5.729 2.356,20.518 1.623,31.373 -0.563,8.341 -9.268,17.74 -5.386,26.105 3.906,8.416 22.117,9.335 41.104,13.303 26.989,5.648 42.726,15.474 55.195,15.937 18.192,0.675 20.979,-17.999 49.544,-18.251 8.329,-0.438 16.478,-0.697 24.618,-0.801 9.225,-0.115 18.438,-0.04 27.897,0.189 19.008,0.459 12.471,10.379 24.805,16.716 10.405,5.346 29.111,3.237 33.589,-1.034 6.057,-5.775 22.317,-19.672 34.775,-25.949 15.533,-7.829 51.999,-21.298 25.524,-37.725 -6.169,-3.828 -20.757,-7.876 -21.985,-35.879 -5.521,4.907 -4.885,31.003 10.529,36.179 17.219,5.782 27.973,15.468 -4.035,26.414 -21.192,7.247 -24.793,9.48 -41.571,23.445 -16.975,14.131 -42.169,8.518 -37.769,-21.234 2.293,-15.5 3.611,-28.309 -0.245,-41.781 -1.883,-6.581 -2.821,-15.023 -1.533,-20.946 2.502,-11.513 8.735,-14.979 14.843,-3.925 3.835,6.938 5.177,15.05 18.905,15.708 21.566,1.033 25.837,-20.841 32.73,-21.836 4.598,-0.663 9.192,-13.675 5.692,-34.723 -3.751,-22.534 -17.011,-58.114 -34.013,-76.158 -14.132,-14.996 -23.038,-28.144 -28.639,-46.911 -4.707,-15.766 -7.335,-31.112 -6.367,-45.784 1.258,-19.01 -9.285,-45.462 -26.068,-57.909 -10.506,-7.791 -26.98,-11.964 -41.892,-11.8 -8.363,0.091 -16.234,1.312 -22.282,4.595 -24.892,13.512 -28.367,32.814 -27.995,54.844 0.349,20.695 1.054,44.308 3.404,66.773 -2.783,10.315 -17.275,29.869 -26.553,41.768 -12.477,12.324 -18.776,36.143 -26.851,56.953 -4.306,11.094 -11.559,16.103 -12.169,30.368 -0.17,3.989 -0.033,14.308 3.78,11.358 14.59,-11.288 32.854,17.165 60.436,60.585 z m 75.735,-298.281 c -0.784,2.352 -4.023,4.311 -1.968,5.956 2.057,1.647 3.235,-2.301 7.372,-3.78 1.067,-0.382 6.039,0.159 6.954,-2.204 0.401,-1.031 -2.562,-2.206 -4.326,-3.894 -1.765,-1.684 -3.495,-3.185 -5.155,-3.079 -4.285,0.276 -2.18,4.918 -2.877,7.001 z m 25.359,85.808 c 1.542,-1.617 2.335,2.792 6.477,5.406 3.284,2.074 6.478,0.537 7.309,4.736 0.593,3.01 -1.286,6.276 -3.809,5.851 -4.394,-0.741 -14.533,-11.209 -9.977,-15.993 z m -68.441,-26.48 c -6.823,-0.509 -7.292,4.424 -5.031,4.342 2.305,-0.082 0.889,-3.904 5.031,-4.342 z m -11.705,-12.604 c 0.808,-0.175 1.953,1.198 1.598,3.125 -0.496,2.674 -0.281,4.351 1.573,4.357 0.304,0 0.636,-0.057 0.752,-0.752 0.889,-5.328 -1.879,-9.24 -3.011,-9.53 -2.609,-0.665 -2.291,3.096 -0.912,2.8 z m 49.678,-2.254 c 1.732,0.515 3.399,3.514 3.761,6.751 0.034,0.301 2.262,-0.465 2.282,-1.173 0.139,-5.212 -4.309,-7.661 -5.474,-7.556 -2.679,0.242 -1.924,1.574 -0.569,1.978 z m -25.466,15.493 c 6.208,-2.875 8.378,1.581 6.234,2.297 -2.185,0.731 -2.203,-3.343 -6.234,-2.297 z M 439.626,491.15 c -2.934,-0.356 0.854,-2.558 2.459,-5.333 1.765,-3.051 1.425,-6.859 3.278,-6.298 1.854,0.562 0.822,2.694 -0.448,6.192 -1.083,2.979 -4.207,5.571 -5.289,5.439 z"
   id="path93" />
</g>
</svg>
